<svg width="12" height="15" viewBox="0 0 12 15" fill="none" xmlns="http://www.w3.org/2000/svg">
<path d="M0 1C0 0.447715 0.447715 0 1 0H11C11.5523 0 12 0.447715 12 1V10.4798C12 11.0321 11.5523 11.4798 11 11.4798H7.68352C7.53293 11.4798 7.41085 11.3577 7.41085 11.2071C7.41085 10.9504 7.08342 10.8335 6.88945 11.0016C6.55816 11.2887 6.16007 11.4798 5.56589 11.4798C3.70543 11.4798 2.94574 9.6763 2.94574 7.49133C2.94574 5.3237 3.70543 3.50289 5.56589 3.50289C6.16007 3.50289 6.55816 3.69392 6.88945 3.98106C7.08342 4.14919 7.41085 4.03225 7.41085 3.77556C7.41085 3.62497 7.53293 3.50289 7.68352 3.50289H8.22481C8.67434 3.50289 9.03876 3.86731 9.03876 4.31684V8.95761C9.03876 9.3258 9.33724 9.62428 9.70543 9.62428C10.0736 9.62428 10.3721 9.3258 10.3721 8.95761V2.82081C10.3721 2.26853 9.92438 1.82081 9.37209 1.82081H2.62791C2.07562 1.82081 1.62791 2.26852 1.62791 2.82081V12.1792C1.62791 12.7315 2.07562 13.1792 2.62791 13.1792H9.43068C9.93348 13.1792 10.3411 13.5868 10.3411 14.0896C10.3411 14.5924 9.93348 15 9.43068 15H0.999999C0.447714 15 0 14.5523 0 14V1ZM6 9.65896C7.02326 9.65896 7.41085 9.17341 7.41085 7.49133C7.41085 5.82659 7.02326 5.3237 6 5.3237C4.97674 5.3237 4.57364 5.82659 4.57364 7.49133C4.57364 9.17341 4.97674 9.65896 6 9.65896Z" fill="#535353"/>
</svg>
