<svg width="15" height="16" viewBox="0 0 15 16" fill="none" xmlns="http://www.w3.org/2000/svg">
<g clip-path="url(#clip0_40_858)">
<path d="M8.58125 13.9999C8.47137 14.202 8.31365 14.3697 8.12389 14.4863C7.93413 14.6029 7.71899 14.6642 7.5 14.6642C7.28101 14.6642 7.06587 14.6029 6.87611 14.4863C6.68635 14.3697 6.52863 14.202 6.41875 13.9999M11.25 5.33325C11.25 4.27239 10.8549 3.25497 10.1517 2.50482C9.44839 1.75468 8.49456 1.33325 7.5 1.33325C6.50544 1.33325 5.55161 1.75468 4.84835 2.50482C4.14509 3.25497 3.75 4.27239 3.75 5.33325C3.75 9.99992 1.875 11.3333 1.875 11.3333H13.125C13.125 11.3333 11.25 9.99992 11.25 5.33325Z" stroke="#18191D" stroke-width="2.5" stroke-linecap="round" stroke-linejoin="round"/>
</g>
<defs>
<clipPath id="clip0_40_858">
<rect width="15" height="16" fill="white"/>
</clipPath>
</defs>
</svg>
