<svg width="14" height="14" viewBox="0 0 14 14" fill="none" xmlns="http://www.w3.org/2000/svg">
<path d="M8.16666 1.16666H3.49999C3.19058 1.16666 2.89383 1.28957 2.67504 1.50837C2.45624 1.72716 2.33333 2.0239 2.33333 2.33332V11.6667C2.33333 11.9761 2.45624 12.2728 2.67504 12.4916C2.89383 12.7104 3.19058 12.8333 3.49999 12.8333H10.5C10.8094 12.8333 11.1062 12.7104 11.325 12.4916C11.5437 12.2728 11.6667 11.9761 11.6667 11.6667V4.66666M8.16666 1.16666L11.6667 4.66666M8.16666 1.16666V4.66666H11.6667M9.33333 7.58332H4.66666M9.33333 9.91666H4.66666M5.83333 5.24999H4.66666" stroke="#535353" stroke-width="2" stroke-linecap="round" stroke-linejoin="round"/>
</svg>
