<svg width="11" height="11" viewBox="0 0 11 11" fill="none" xmlns="http://www.w3.org/2000/svg">
<g clip-path="url(#clip0_63_177)">
<path d="M7.5625 4.30833L3.4375 1.92958M1.49875 3.19L5.5 5.50458L9.50125 3.19M5.5 10.12V5.5M9.625 7.33333V3.66666C9.62484 3.50591 9.5824 3.34803 9.50196 3.20886C9.42151 3.06969 9.30588 2.95412 9.16667 2.87375L5.95833 1.04041C5.81898 0.959958 5.66091 0.917603 5.5 0.917603C5.33909 0.917603 5.18102 0.959958 5.04167 1.04041L1.83333 2.87375C1.69412 2.95412 1.57849 3.06969 1.49804 3.20886C1.4176 3.34803 1.37516 3.50591 1.375 3.66666V7.33333C1.37516 7.49408 1.4176 7.65196 1.49804 7.79113C1.57849 7.9303 1.69412 8.04587 1.83333 8.12625L5.04167 9.95958C5.18102 10.04 5.33909 10.0824 5.5 10.0824C5.66091 10.0824 5.81898 10.04 5.95833 9.95958L9.16667 8.12625C9.30588 8.04587 9.42151 7.9303 9.50196 7.79113C9.5824 7.65196 9.62484 7.49408 9.625 7.33333Z" stroke="black" stroke-width="1.5" stroke-linecap="round" stroke-linejoin="round"/>
</g>
<defs>
<clipPath id="clip0_63_177">
<rect width="11" height="11" fill="white"/>
</clipPath>
</defs>
</svg>
