<svg width="22" height="12" viewBox="0 0 22 12" fill="none" xmlns="http://www.w3.org/2000/svg">
<rect width="22" height="12" rx="1" fill="url(#paint0_linear_63_147)"/>
<path d="M6 3V9M7.66667 4.09091H5.16667C4.85725 4.09091 4.5605 4.19148 4.34171 4.37049C4.12292 4.5495 4 4.79229 4 5.04545C4 5.29862 4.12292 5.54141 4.34171 5.72042C4.5605 5.89943 4.85725 6 5.16667 6H6.83333C7.14275 6 7.4395 6.10057 7.65829 6.27958C7.87708 6.45859 8 6.70138 8 6.95455C8 7.20771 7.87708 7.4505 7.65829 7.62951C7.4395 7.80852 7.14275 7.90909 6.83333 7.90909H4" stroke="url(#paint1_linear_63_147)" stroke-linecap="round" stroke-linejoin="round"/>
<path d="M11 3V9M12.6667 4.09091H10.1667C9.85725 4.09091 9.5605 4.19148 9.34171 4.37049C9.12292 4.5495 9 4.79229 9 5.04545C9 5.29862 9.12292 5.54141 9.34171 5.72042C9.5605 5.89943 9.85725 6 10.1667 6H11.8333C12.1428 6 12.4395 6.10057 12.6583 6.27958C12.8771 6.45859 13 6.70138 13 6.95455C13 7.20771 12.8771 7.4505 12.6583 7.62951C12.4395 7.80852 12.1428 7.90909 11.8333 7.90909H9" stroke="url(#paint2_linear_63_147)" stroke-linecap="round" stroke-linejoin="round"/>
<path d="M16 3V9M17.6667 4.09091H15.1667C14.8572 4.09091 14.5605 4.19148 14.3417 4.37049C14.1229 4.5495 14 4.79229 14 5.04545C14 5.29862 14.1229 5.54141 14.3417 5.72042C14.5605 5.89943 14.8572 6 15.1667 6H16.8333C17.1428 6 17.4395 6.10057 17.6583 6.27958C17.8771 6.45859 18 6.70138 18 6.95455C18 7.20771 17.8771 7.4505 17.6583 7.62951C17.4395 7.80852 17.1428 7.90909 16.8333 7.90909H14" stroke="url(#paint3_linear_63_147)" stroke-linecap="round" stroke-linejoin="round"/>
<defs>
<linearGradient id="paint0_linear_63_147" x1="11" y1="0" x2="11" y2="12" gradientUnits="userSpaceOnUse">
<stop stop-color="#D8DBDF"/>
<stop offset="1" stop-color="#E5EAF1"/>
</linearGradient>
<linearGradient id="paint1_linear_63_147" x1="6" y1="3" x2="6" y2="9" gradientUnits="userSpaceOnUse">
<stop stop-color="#559854"/>
<stop offset="1" stop-color="#448342"/>
</linearGradient>
<linearGradient id="paint2_linear_63_147" x1="11" y1="3" x2="11" y2="9" gradientUnits="userSpaceOnUse">
<stop stop-color="#559854"/>
<stop offset="1" stop-color="#448342"/>
</linearGradient>
<linearGradient id="paint3_linear_63_147" x1="16" y1="3" x2="16" y2="9" gradientUnits="userSpaceOnUse">
<stop stop-color="#559854"/>
<stop offset="1" stop-color="#448342"/>
</linearGradient>
</defs>
</svg>
