<svg width="16" height="16" viewBox="0 0 16 16" fill="none" xmlns="http://www.w3.org/2000/svg">
<path d="M15.875 8.1749C15.875 7.5274 15.8214 7.0549 15.7054 6.56491H8.16072V9.48738H12.5893C12.5 10.2137 12.0179 11.3074 10.9464 12.0424L10.9314 12.1402L13.3169 13.9512L13.4821 13.9674C15 12.5936 15.875 10.5724 15.875 8.1749Z" fill="#4285F4"/>
<path d="M8.16022 15.875C10.3298 15.875 12.1517 15.1749 13.4821 13.9674L10.9464 12.0424C10.2679 12.5061 9.35662 12.8299 8.16022 12.8299C6.03524 12.8299 4.23169 11.4562 3.58878 9.55744L3.49454 9.56528L1.0141 11.4466L0.981659 11.5349C2.30307 14.1074 5.01735 15.875 8.16022 15.875Z" fill="#34A853"/>
<path d="M3.58878 9.55744C3.41914 9.06745 3.32143 8.54245 3.32143 7.99998C3.32143 7.45744 3.41961 6.93246 3.58032 6.44247L3.57583 6.33811L1.06429 4.42664L0.982121 4.46495C0.437503 5.53246 0.125 6.73123 0.125 7.99998C0.125 9.26872 0.437041 10.4674 0.981659 11.5349L3.58878 9.55744Z" fill="#FBBC05"/>
<path d="M8.16026 3.16998C9.66917 3.16998 10.687 3.80873 11.2674 4.34251L13.5352 2.1725C12.1424 0.903753 10.3299 0.125 8.16026 0.125C5.01737 0.125 2.30354 1.89247 0.982121 4.46495L3.58032 6.44247C4.23217 4.54373 6.03527 3.16998 8.16026 3.16998Z" fill="#EB4335"/>
</svg>
