<svg width="14" height="14" viewBox="0 0 14 14" fill="none" xmlns="http://www.w3.org/2000/svg">
<g clip-path="url(#clip0_155_157)">
<path d="M9.04164 4.37502L11.0833 2.33335M12.25 1.16669L11.0833 2.33335L12.25 1.16669ZM6.64414 6.77252C6.94534 7.06971 7.18478 7.42354 7.34867 7.81365C7.51256 8.20375 7.59766 8.62242 7.59908 9.04556C7.60049 9.46869 7.5182 9.88792 7.35693 10.2791C7.19566 10.6703 6.9586 11.0257 6.6594 11.3249C6.36019 11.6241 6.00476 11.8612 5.61357 12.0225C5.22238 12.1837 4.80314 12.266 4.38001 12.2646C3.95688 12.2632 3.53821 12.1781 3.1481 12.0142C2.758 11.8503 2.40417 11.6109 2.10698 11.3097C1.52255 10.7046 1.19917 9.89416 1.20648 9.05294C1.21379 8.21173 1.55121 7.40704 2.14606 6.81219C2.74091 6.21733 3.5456 5.87992 4.38681 5.87261C5.22803 5.8653 6.03846 6.18868 6.64356 6.7731L6.64414 6.77252ZM6.64414 6.77252L9.04164 4.37502L6.64414 6.77252ZM9.04164 4.37502L10.7916 6.12502L12.8333 4.08335L11.0833 2.33335L9.04164 4.37502Z" stroke="#535353" stroke-width="2" stroke-linecap="round" stroke-linejoin="round"/>
</g>
<defs>
<clipPath id="clip0_155_157">
<rect width="14" height="14" fill="white"/>
</clipPath>
</defs>
</svg>
