<svg width="14" height="14" viewBox="0 0 14 14" fill="none" xmlns="http://www.w3.org/2000/svg">
<path d="M10.2083 3.79166H10.2142M4.08332 1.16666H9.91666C11.5275 1.16666 12.8333 2.47249 12.8333 4.08332V9.91666C12.8333 11.5275 11.5275 12.8333 9.91666 12.8333H4.08332C2.47249 12.8333 1.16666 11.5275 1.16666 9.91666V4.08332C1.16666 2.47249 2.47249 1.16666 4.08332 1.16666ZM9.33332 6.63249C9.40531 7.11797 9.32239 7.61378 9.09635 8.04942C8.87031 8.48505 8.51266 8.83831 8.07427 9.05897C7.63588 9.27962 7.13908 9.35642 6.65453 9.27845C6.16998 9.20048 5.72235 8.9717 5.37531 8.62467C5.02827 8.27763 4.7995 7.83 4.72153 7.34545C4.64356 6.8609 4.72036 6.36409 4.94101 5.92571C5.16167 5.48732 5.51493 5.12967 5.95056 4.90363C6.3862 4.67759 6.88201 4.59467 7.36749 4.66666C7.86269 4.74009 8.32115 4.97084 8.67514 5.32484C9.02914 5.67883 9.25989 6.13728 9.33332 6.63249Z" stroke="black" stroke-width="1.5" stroke-linecap="round" stroke-linejoin="round"/>
</svg>
