<svg width="16" height="16" viewBox="0 0 16 16" fill="none" xmlns="http://www.w3.org/2000/svg">
<path d="M7.99999 8.66659C8.36818 8.66659 8.66666 8.36811 8.66666 7.99992C8.66666 7.63173 8.36818 7.33325 7.99999 7.33325C7.6318 7.33325 7.33332 7.63173 7.33332 7.99992C7.33332 8.36811 7.6318 8.66659 7.99999 8.66659Z" stroke="#18191D" stroke-width="2" stroke-linecap="round" stroke-linejoin="round"/>
<path d="M12.6667 8.66659C13.0348 8.66659 13.3333 8.36811 13.3333 7.99992C13.3333 7.63173 13.0348 7.33325 12.6667 7.33325C12.2985 7.33325 12 7.63173 12 7.99992C12 8.36811 12.2985 8.66659 12.6667 8.66659Z" stroke="#18191D" stroke-width="2" stroke-linecap="round" stroke-linejoin="round"/>
<path d="M3.33332 8.66659C3.70151 8.66659 3.99999 8.36811 3.99999 7.99992C3.99999 7.63173 3.70151 7.33325 3.33332 7.33325C2.96513 7.33325 2.66666 7.63173 2.66666 7.99992C2.66666 8.36811 2.96513 8.66659 3.33332 8.66659Z" stroke="#18191D" stroke-width="2" stroke-linecap="round" stroke-linejoin="round"/>
</svg>
