<svg width="12" height="12" viewBox="0 0 12 12" fill="none" xmlns="http://www.w3.org/2000/svg">
<path d="M2.5 10.5H9.5C10.0523 10.5 10.5 10.0523 10.5 9.5V2.5C10.5 1.94772 10.0523 1.5 9.5 1.5H2.5C1.94772 1.5 1.5 1.94772 1.5 2.5V9.5C1.5 10.0523 1.94772 10.5 2.5 10.5ZM2.5 10.5L8 5L10.5 7.5M5 4.25C5 4.66421 4.66421 5 4.25 5C3.83579 5 3.5 4.66421 3.5 4.25C3.5 3.83579 3.83579 3.5 4.25 3.5C4.66421 3.5 5 3.83579 5 4.25Z" stroke="#18191D" stroke-width="1.5" stroke-linecap="round" stroke-linejoin="round"/>
</svg>
