<svg width="14" height="14" viewBox="0 0 14 14" fill="none" xmlns="http://www.w3.org/2000/svg">
<g clip-path="url(#clip0_155_208)">
<path d="M12.8333 9.86999V11.62C12.834 11.7824 12.8007 11.9433 12.7356 12.0921C12.6705 12.241 12.5751 12.3746 12.4554 12.4844C12.3357 12.5942 12.1943 12.6779 12.0404 12.7299C11.8865 12.7819 11.7235 12.8013 11.5617 12.7867C9.76665 12.5916 8.04242 11.9782 6.5275 10.9958C5.11807 10.1002 3.92311 8.90525 3.0275 7.49582C2.04166 5.97402 1.42814 4.2414 1.23667 2.43832C1.22209 2.27701 1.24126 2.11443 1.29296 1.96093C1.34466 1.80744 1.42775 1.66639 1.53695 1.54676C1.64615 1.42714 1.77905 1.33157 1.92721 1.26612C2.07537 1.20068 2.23553 1.1668 2.3975 1.16665H4.1475C4.4306 1.16387 4.70505 1.26411 4.9197 1.44871C5.13434 1.63331 5.27455 1.88966 5.31417 2.16999C5.38803 2.73002 5.52501 3.27991 5.7225 3.80915C5.80099 4.01794 5.81797 4.24485 5.77145 4.463C5.72492 4.68115 5.61684 4.88138 5.46 5.03999L4.71917 5.78082C5.54958 7.24122 6.75877 8.45041 8.21917 9.28082L8.96 8.53999C9.1186 8.38315 9.31884 8.27506 9.53699 8.22854C9.75513 8.18202 9.98205 8.199 10.1908 8.27749C10.7201 8.47497 11.27 8.61196 11.83 8.68582C12.1134 8.72579 12.3722 8.86852 12.5571 9.08686C12.7421 9.30519 12.8404 9.5839 12.8333 9.86999Z" stroke="#535353" stroke-width="2" stroke-linecap="round" stroke-linejoin="round"/>
</g>
<defs>
<clipPath id="clip0_155_208">
<rect width="14" height="14" fill="white"/>
</clipPath>
</defs>
</svg>
