<svg width="14" height="14" viewBox="0 0 14 14" fill="none" xmlns="http://www.w3.org/2000/svg">
<path d="M9.625 5.48335L4.375 2.45585M1.9075 4.06001L7 7.00585L12.0925 4.06001M7 12.88V7.00001M12.25 9.33335V4.66668C12.2498 4.46209 12.1958 4.26115 12.0934 4.08403C11.991 3.9069 11.8438 3.75981 11.6667 3.65751L7.58333 1.32418C7.40598 1.22178 7.20479 1.16788 7 1.16788C6.79521 1.16788 6.59402 1.22178 6.41667 1.32418L2.33333 3.65751C2.15615 3.75981 2.00899 3.9069 1.9066 4.08403C1.80422 4.26115 1.75021 4.46209 1.75 4.66668V9.33335C1.75021 9.53794 1.80422 9.73887 1.9066 9.916C2.00899 10.0931 2.15615 10.2402 2.33333 10.3425L6.41667 12.6758C6.59402 12.7782 6.79521 12.8322 7 12.8322C7.20479 12.8322 7.40598 12.7782 7.58333 12.6758L11.6667 10.3425C11.8438 10.2402 11.991 10.0931 12.0934 9.916C12.1958 9.73887 12.2498 9.53794 12.25 9.33335Z" stroke="black" stroke-width="1.5" stroke-linecap="round" stroke-linejoin="round"/>
</svg>
