<svg width="12" height="12" viewBox="0 0 12 12" fill="none" xmlns="http://www.w3.org/2000/svg">
<g clip-path="url(#clip0_40_870)">
<path d="M4.295 6.755L7.71 8.745M7.705 3.255L4.295 5.245M10.5 2.5C10.5 3.32843 9.82843 4 9 4C8.17157 4 7.5 3.32843 7.5 2.5C7.5 1.67157 8.17157 1 9 1C9.82843 1 10.5 1.67157 10.5 2.5ZM4.5 6C4.5 6.82843 3.82843 7.5 3 7.5C2.17157 7.5 1.5 6.82843 1.5 6C1.5 5.17157 2.17157 4.5 3 4.5C3.82843 4.5 4.5 5.17157 4.5 6ZM10.5 9.5C10.5 10.3284 9.82843 11 9 11C8.17157 11 7.5 10.3284 7.5 9.5C7.5 8.67157 8.17157 8 9 8C9.82843 8 10.5 8.67157 10.5 9.5Z" stroke="black" stroke-width="1.5" stroke-linecap="round" stroke-linejoin="round"/>
</g>
<defs>
<clipPath id="clip0_40_870">
<rect width="12" height="12" fill="white"/>
</clipPath>
</defs>
</svg>
