<svg width="40" height="12" fill="none" xmlns="http://www.w3.org/2000/svg">
<path d="M17.504.071c-1.161.135-1.894.578-2.175 1.315-.113.298-.152.579-.179 1.297l-.035.917h-1.224c-1.08 0-1.224.013-1.224.107 0 .077-.034.093-.117.058-.961-.408-2.523-.488-3.264-.167-.356.153-.887.651-1.03.966-.043.093-.118.169-.167.169-.067 0-.089-.137-.089-.566V3.6H6.068l-.017 3.25-.018 3.25-.983.018-.983.019v-7.27H6V1.133H.133v1.734H2v7.266H0v1.734H7.989l.025-2.684c.023-2.582.03-2.697.172-3.053.296-.745.769-1.003 1.855-1.012.874-.007 1.207.132 1.438.603.153.31.155.339.177 3.229l.023 2.917H13.608L13.587 8.6l-.02-3.267h1.566v6.534h1.934V5.333h3.066V3.6h-3.066v-.569c0-.686.105-.978.411-1.14.188-.099.503-.126 2.055-.172 1.008-.03 1.87-.04 1.916-.022.067.025.084.923.084 4.268V10.2h-3V11.867h3.834c3.363 0 3.833-.013 3.833-.1 0-.124.015-.124.301-.004.629.262 2.191.298 2.957.068.386-.116.897-.535 1.148-.941.076-.123.166-.207.2-.186.033.02.061.29.061.6v.563h2.979l.959-1.367c.527-.752.975-1.367.996-1.367.022 0 .471.615.999 1.367l.96 1.367h1.087c.597 0 1.086-.023 1.085-.05 0-.028-.691-.975-1.534-2.105l-1.534-2.054.149-.213c.083-.116.676-.932 1.32-1.812.643-.88 1.238-1.697 1.323-1.816l.153-.217-1.088.002-1.088.002-.883 1.331c-.486.732-.914 1.332-.95 1.332-.036 0-.464-.6-.95-1.332l-.883-1.331-1.55-.002-1.55-.002v2.337c0 1.387-.031 2.532-.075 2.817-.184 1.19-.693 1.581-2.053 1.578-.709-.002-1.114-.13-1.297-.41-.194-.298-.241-1.008-.241-3.672L27.2 3.6H25.259l.02 3.3.021 3.3H23.467V6.911c0-1.809-.02-4.104-.044-5.1L23.379 0l-2.706.009c-1.489.005-2.915.033-3.169.062m16.244 6.212c.49.669.913 1.253.94 1.297.04.065-1.439 2.165-1.797 2.551-.077.082-.091-.306-.091-2.483 0-1.42.013-2.581.028-2.581.015 0 .429.547.92 1.216" fill="#18191D" fill-rule="evenodd"/></svg>