<svg width="24" height="24" viewBox="0 0 24 24" fill="none" xmlns="http://www.w3.org/2000/svg">
<path d="M10.8843 3.55009C11.2538 2.81664 12.3009 2.81664 12.6704 3.55009L13.6627 5.51966C13.8855 5.96205 14.3987 6.17461 14.8691 6.01938L16.9634 5.3283C17.7433 5.07095 18.4838 5.81139 18.2264 6.59129L17.5353 8.68561C17.3801 9.15602 17.5926 9.66917 18.035 9.89204L20.0046 10.8843C20.7381 11.2538 20.7381 12.3009 20.0046 12.6704L18.035 13.6627C17.5926 13.8855 17.3801 14.3987 17.5353 14.8691L18.2264 16.9634C18.4838 17.7433 17.7433 18.4838 16.9634 18.2264L14.8691 17.5353C14.3987 17.3801 13.8855 17.5926 13.6627 18.035L12.6704 20.0046C12.3009 20.7381 11.2538 20.7381 10.8843 20.0046L9.89204 18.035C9.66917 17.5926 9.15602 17.3801 8.68561 17.5353L6.59129 18.2264C5.81139 18.4838 5.07095 17.7433 5.3283 16.9634L6.01938 14.8691C6.17461 14.3987 5.96205 13.8855 5.51966 13.6627L3.55009 12.6704C2.81664 12.3009 2.81664 11.2538 3.55009 10.8843L5.51966 9.89204C5.96205 9.66917 6.17461 9.15602 6.01938 8.68561L5.3283 6.59129C5.07095 5.81139 5.81139 5.07095 6.59129 5.3283L8.68561 6.01938C9.15602 6.17461 9.66917 5.96205 9.89204 5.51966L10.8843 3.55009Z" fill="#5F8BFF"/>
<path d="M9 12L11 14L15 10" stroke="white" stroke-width="1.5" stroke-linecap="round" stroke-linejoin="round"/>
</svg>
